<?xml version="1.0" encoding="utf-8"?>
<!-- Generator: Adobe Illustrator 25.2.0, SVG Export Plug-In . SVG Version: 6.00 Build 0)  -->
<svg version="1.1" id="Layer_1" xmlns="http://www.w3.org/2000/svg" xmlns:xlink="http://www.w3.org/1999/xlink" x="0px" y="0px"
	 viewBox="0 0 40 40" style="enable-background:new 0 0 40 40;" xml:space="preserve">
<style type="text/css">
	.st0{fill:#1677F0;}
	.st1{fill:#FFFFFF;}
</style>
<g>
	<path class="st0" d="M34.1,40H5.9C2.6,40,0,37.4,0,34.1V5.9C0,2.6,2.6,0,5.9,0h28.2C37.4,0,40,2.6,40,5.9v28.2
		C40,37.4,37.4,40,34.1,40z"/>
</g>
<path class="st1" d="M26.3,11.9V7.9c0,0-4,0-4.3,0c-1.8,0-4.4,2.1-4.4,4.4c0,2.6,0,4.2,0,4.2h-3.8V21h3.7v11.1h4.4V21h3.9l0.5-4.4
	h-4.3c0,0,0-2.7,0-3.2c0-0.8,0.6-1.5,1.5-1.5C24,11.8,26.3,11.9,26.3,11.9z"/>
</svg>
