<?xml version="1.0" encoding="utf-8"?>
<!-- Generator: Adobe Illustrator 25.2.0, SVG Export Plug-In . SVG Version: 6.00 Build 0)  -->
<svg version="1.1" id="Layer_1" xmlns="http://www.w3.org/2000/svg" xmlns:xlink="http://www.w3.org/1999/xlink" x="0px" y="0px"
	 viewBox="0 0 40 40" style="enable-background:new 0 0 40 40;" xml:space="preserve">
<style type="text/css">
	.st0{fill:#FFFFFF;}
	.st1{fill:#4285F4;}
	.st2{fill:#34A853;}
	.st3{fill:#FBBC04;}
	.st4{fill:#EA4335;}
	.st5{fill:#C5221F;}
</style>
<g>
	<path class="st0" d="M34.1,40H5.9C2.6,40,0,37.4,0,34.1V5.9C0,2.6,2.6,0,5.9,0h28.2C37.4,0,40,2.6,40,5.9v28.2
		C40,37.4,37.4,40,34.1,40z"/>
</g>
<g>
	<path class="st1" d="M8.4,30.1h4.3V19.7l-6.1-4.6v13.1C6.6,29.2,7.4,30.1,8.4,30.1"/>
	<path class="st2" d="M27.3,30.1h4.3c1,0,1.8-0.8,1.8-1.8V15.1l-6.1,4.6"/>
	<path class="st3" d="M27.3,11.8v7.9l6.1-4.6v-2.4c0-2.3-2.6-3.6-4.4-2.2"/>
	<path class="st4" d="M12.7,19.7v-7.9l7.3,5.5l7.3-5.5v7.9L20,25.2"/>
	<path class="st5" d="M6.6,12.7v2.4l6.1,4.6v-7.9L11,10.5C9.2,9.1,6.6,10.4,6.6,12.7"/>
</g>
</svg>
