<?xml version="1.0" encoding="utf-8"?>
<!-- Generator: Adobe Illustrator 23.0.5, SVG Export Plug-In . SVG Version: 6.00 Build 0)  -->
<svg version="1.1" id="Layer_1" xmlns="http://www.w3.org/2000/svg" xmlns:xlink="http://www.w3.org/1999/xlink" x="0px" y="0px"
	 viewBox="0 0 40 40" style="enable-background:new 0 0 40 40;" xml:space="preserve">
<style type="text/css">
	.st0{fill:#58595B;}
	.st1{display:none;}
	.st2{display:inline;fill-rule:evenodd;clip-rule:evenodd;fill:#FFFFFF;}
</style>
<g>
	<path class="st0" d="M34.1,40H5.9C2.6,40,0,37.4,0,34.1V5.9C0,2.6,2.6,0,5.9,0h28.2C37.4,0,40,2.6,40,5.9v28.2
		C40,37.4,37.4,40,34.1,40z"/>
</g>
<g class="st1">
	<path class="st2" d="M29.9,28.7L29.9,28.7c-0.4,0.8-1,1.5-1.7,2.2l0,0c-0.9,0.8-1.8,1-2.7,0.8c-3.4-1.4-6.8-3.3-9.9-6.6
		c-3.2-3.3-5.3-7-6.4-10.5L8.9,14c-0.2-1.3,0.6-2.1,2.8-3.6l0,0c0.8-0.5,1.5-0.2,2,0.2c0.5,0.3,1.7,2,1.7,2c0.2,0.4,2,2.5,1.6,3.6
		c-0.1,0.6-1.2,1.2-1.7,1.7l0,0c-0.2,0.4-0.3,0.7-0.3,1.2v0.1c0.3,1.4,1.1,2.7,2.4,4s2.6,2,3.8,2.3c0.2,0,0.8,0.1,1.2-0.4l0.8-1.1
		c0.4-0.5,1.3-0.9,2.3-0.3c0.5,0.3,1.4,0.9,2,1.3c0.6,0.5,1.9,1.5,1.9,1.5C30.1,27.1,30.3,27.9,29.9,28.7z"/>
	<path class="st2" d="M25.5,14.7c-0.5-0.5-1.1-1-1.7-1.3c-0.7-0.3-1.5-0.5-2.4-0.6c-0.3,0-0.6-0.3-0.6-0.7c0-0.3,0.3-0.6,0.6-0.6
		l0,0c2.1,0.2,3.8,0.9,5,2.3c1.2,1.3,1.8,3,1.7,5c0,0.3-0.3,0.6-0.6,0.6l0,0c-0.3,0-0.6-0.3-0.6-0.6C26.9,17.2,26.5,15.8,25.5,14.7z
		"/>
	<path class="st2" d="M21.4,15L21.4,15c1.1,0.1,2,0.4,2.6,1c0.6,0.6,0.9,1.5,1,2.6c0,0.3-0.3,0.6-0.6,0.7l0,0l0,0
		c-0.3,0-0.6-0.3-0.6-0.6c0-0.8-0.2-1.4-0.6-1.8s-0.9-0.6-1.7-0.6c-0.3,0-0.6-0.3-0.6-0.7C20.8,15.3,21.1,15,21.4,15z"/>
	<path class="st2" d="M30.5,19.7L30.5,19.7L30.5,19.7c-0.4,0-0.6-0.3-0.6-0.6c0-1.5-0.2-2.8-0.7-4c-0.4-1.1-1.1-2.2-1.9-3
		s-1.8-1.5-2.8-1.9c-1.1-0.4-2.2-0.6-3.5-0.7c-0.3,0-0.6-0.3-0.6-0.6s0.3-0.6,0.6-0.6c2.9,0,5.3,1,7.2,2.9c1,1,1.7,2.1,2.2,3.5
		c0.5,1.3,0.7,2.8,0.7,4.4C31.1,19.4,30.8,19.7,30.5,19.7z"/>
</g>
<image style="overflow:visible;" width="256" height="256" xlink:href="../../../../Downloads/hour (1).png"  transform="matrix(9.235197e-02 0 0 9.235197e-02 8.1789 8.1789)">
</image>
</svg>
