<?xml version="1.0" encoding="utf-8"?>
<!-- Generator: Adobe Illustrator 25.2.0, SVG Export Plug-In . SVG Version: 6.00 Build 0)  -->
<svg version="1.1" id="Layer_1" xmlns="http://www.w3.org/2000/svg" xmlns:xlink="http://www.w3.org/1999/xlink" x="0px" y="0px"
	 viewBox="0 0 40 40" style="enable-background:new 0 0 40 40;" xml:space="preserve">
<style type="text/css">
	.st0{fill:url(#SVGID_1_);}
	.st1{fill:none;}
	.st2{fill:#FFFFFF;}
</style>
<linearGradient id="SVGID_1_" gradientUnits="userSpaceOnUse" x1="-3.9543" y1="-4.2599" x2="45.5615" y2="45.8875">
	<stop  offset="1.104800e-03" style="stop-color:#FFE185"/>
	<stop  offset="0.2094" style="stop-color:#FFBB36"/>
	<stop  offset="0.3765" style="stop-color:#FF5176"/>
	<stop  offset="0.5238" style="stop-color:#F63395"/>
	<stop  offset="0.7394" style="stop-color:#A436D2"/>
	<stop  offset="1" style="stop-color:#5F4EED"/>
</linearGradient>
<path class="st0" d="M34.1,40H5.9C2.6,40,0,37.4,0,34.1V5.9C0,2.6,2.6,0,5.9,0h28.2C37.4,0,40,2.6,40,5.9v28.2
	C40,37.4,37.4,40,34.1,40z"/>
<circle class="st1" cx="-26.4" cy="20" r="20"/>
<g>
	<g>
		<path class="st2" d="M20,9.7c3.4,0,3.8,0,5.1,0.1c1.2,0.1,1.9,0.3,2.3,0.4c0.6,0.2,1,0.5,1.4,0.9s0.7,0.9,0.9,1.4
			c0.2,0.4,0.4,1.1,0.4,2.3c0.1,1.3,0.1,1.7,0.1,5.1s0,3.8-0.1,5.1c-0.1,1.2-0.3,1.9-0.4,2.3c-0.2,0.6-0.5,1-0.9,1.4
			s-0.9,0.7-1.4,0.9C27,29.8,26.3,30,25.1,30c-1.3,0.1-1.7,0.1-5.1,0.1s-3.8,0-5.1-0.1c-1.2-0.1-1.9-0.3-2.3-0.4
			c-0.6-0.2-1-0.5-1.4-0.9s-0.7-0.9-0.9-1.4c-0.3-0.3-0.5-1-0.6-2.2c-0.1-1.3-0.1-1.7-0.1-5.1s0-3.8,0.1-5.1
			c0.1-1.2,0.3-1.9,0.4-2.3c0.2-0.6,0.5-1,0.9-1.4s0.9-0.7,1.4-0.9c0.4-0.2,1.1-0.4,2.3-0.4C16.2,9.7,16.6,9.7,20,9.7 M20,7.4
			c-3.4,0-3.8,0-5.2,0.1c-1.3,0.1-2.3,0.3-3.1,0.6c-0.8,0.3-1.5,0.8-2.2,1.5S8.4,11,8,11.8c-0.3,0.8-0.5,1.7-0.6,3.1
			c-0.1,1.3-0.1,1.8-0.1,5.2s0,3.8,0.1,5.2c0.1,1.3,0.3,2.3,0.6,3.1c0.3,0.8,0.8,1.5,1.5,2.2s1.4,1.1,2.2,1.5
			c0.8,0.3,1.7,0.5,3.1,0.6c1.3,0.1,1.8,0.1,5.2,0.1s3.8,0,5.2-0.1c1.3-0.1,2.3-0.3,3.1-0.6c0.8-0.3,1.5-0.8,2.2-1.5
			s1.1-1.4,1.5-2.2c0.3-0.8,0.5-1.7,0.6-3.1c0.1-1.3,0.1-1.8,0.1-5.2s0-3.8-0.1-5.2c-0.1-1.3-0.3-2.3-0.6-3.1
			c-0.3-0.8-0.8-1.5-1.5-2.2s-1.4-1.1-2.2-1.5c-0.8-0.3-1.7-0.5-3.1-0.6C23.8,7.4,23.4,7.4,20,7.4L20,7.4z"/>
		<path class="st2" d="M20,13.5c-3.6,0-6.5,2.9-6.5,6.5s2.9,6.5,6.5,6.5s6.5-2.9,6.5-6.5S23.6,13.5,20,13.5z M20,24.2
			c-2.3,0-4.2-1.9-4.2-4.2s1.9-4.2,4.2-4.2s4.2,1.9,4.2,4.2S22.3,24.2,20,24.2z"/>
		<circle class="st2" cx="26.7" cy="13.3" r="1.5"/>
	</g>
</g>
</svg>
