<?xml version="1.0" encoding="utf-8"?>
<!-- Generator: Adobe Illustrator 25.2.0, SVG Export Plug-In . SVG Version: 6.00 Build 0)  -->
<svg version="1.1" id="Layer_1" xmlns="http://www.w3.org/2000/svg" xmlns:xlink="http://www.w3.org/1999/xlink" x="0px" y="0px"
	 viewBox="0 0 40 40" style="enable-background:new 0 0 40 40;" xml:space="preserve">
<style type="text/css">
	.st0{fill:#0077B7;}
	.st1{fill:#FFFFFF;}
</style>
<g>
	<g>
		<path class="st0" d="M34.1,40H5.9C2.6,40,0,37.4,0,34.1V5.9C0,2.6,2.6,0,5.9,0h28.2C37.4,0,40,2.6,40,5.9v28.2
			C40,37.4,37.4,40,34.1,40z"/>
	</g>
</g>
<g id="logo_00000080918153313552087350000016796763954678137477_">
	<g>
		<rect x="7.7" y="15.7" class="st1" width="5" height="17"/>
		<circle class="st1" cx="10.2" cy="10.2" r="3"/>
		<path class="st1" d="M24.4,15.6c-1.3,0.3-2.4,1.4-2.9,2.6v-2.8h-5v17.3h5v-9.6c0-0.9,0.4-1.7,0.9-2.3c0.6-0.6,1.4-0.9,2.3-0.9
			c1.8,0,3.1,1.5,3.1,3.3v9.5h5c0,0,0-11.6,0-11.6C32.8,16.7,28.2,14.6,24.4,15.6z"/>
	</g>
</g>
</svg>
