<?xml version="1.0" encoding="utf-8"?>
<!-- Generator: Adobe Illustrator 25.2.0, SVG Export Plug-In . SVG Version: 6.00 Build 0)  -->
<svg version="1.1" id="Layer_1" xmlns="http://www.w3.org/2000/svg" xmlns:xlink="http://www.w3.org/1999/xlink" x="0px" y="0px"
	 viewBox="0 0 40 40" style="enable-background:new 0 0 40 40;" xml:space="preserve">
<style type="text/css">
	.st0{fill:#FF5264;}
	.st1{fill:#FFFFFF;}
</style>
<g>
	<path class="st0" d="M34.1,40H5.9C2.6,40,0,37.4,0,34.1V5.9C0,2.6,2.6,0,5.9,0h28.2C37.4,0,40,2.6,40,5.9v28.2
		C40,37.4,37.4,40,34.1,40z"/>
</g>
<path class="st1" d="M19,32.5c-7.4-10.7-8.8-11.8-8.8-15.8c0-5.4,4.4-9.8,9.8-9.8s9.8,4.4,9.8,9.8c0,3.9-1.4,5-8.8,15.8
	C20.5,33.2,19.5,33.2,19,32.5L19,32.5z M20,20.8c2.3,0,4.1-1.8,4.1-4.1s-1.8-4.1-4.1-4.1s-4.1,1.8-4.1,4.1S17.7,20.8,20,20.8z"/>
</svg>
