<?xml version="1.0" encoding="utf-8"?>
<!-- Generator: Adobe Illustrator 25.2.0, SVG Export Plug-In . SVG Version: 6.00 Build 0)  -->
<svg version="1.1" id="Layer_1" xmlns="http://www.w3.org/2000/svg" xmlns:xlink="http://www.w3.org/1999/xlink" x="0px" y="0px"
	 viewBox="0 0 40 40" style="enable-background:new 0 0 40 40;" xml:space="preserve">
<style type="text/css">
	.st0{clip-path:url(#SVGID_2_);fill-rule:evenodd;clip-rule:evenodd;fill:url(#XMLID_2_);}
	.st1{fill-rule:evenodd;clip-rule:evenodd;fill:#FFFFFF;}
</style>
<g>
	<defs>
		<path id="SVGID_1_" d="M34.1,40H5.9C2.6,40,0,37.4,0,34.1V5.9C0,2.6,2.6,0,5.9,0h28.2C37.4,0,40,2.6,40,5.9v28.2
			C40,37.4,37.4,40,34.1,40z"/>
	</defs>
	<clipPath id="SVGID_2_">
		<use xlink:href="#SVGID_1_"  style="overflow:visible;"/>
	</clipPath>
	<radialGradient id="XMLID_2_" cx="1.6214" cy="49.5566" r="65.1236" gradientUnits="userSpaceOnUse">
		<stop  offset="0" style="stop-color:#0099FF"/>
		<stop  offset="0.6098" style="stop-color:#A033FF"/>
		<stop  offset="0.9348" style="stop-color:#FF5280"/>
		<stop  offset="1" style="stop-color:#FF7061"/>
	</radialGradient>
	<circle id="XMLID_19_" class="st0" cx="20" cy="20" r="29.9"/>
</g>
<path id="LOGO_18_" class="st1" d="M20,7.4c-7.1,0-12.6,5.2-12.6,12.3c0,3.7,1.5,6.9,4,9.1c0.2,0.2,0.3,0.4,0.3,0.7l0.1,2.3
	c0,0.7,0.8,1.2,1.4,0.9l2.5-1.1c0.2-0.1,0.5-0.1,0.7-0.1c1.2,0.3,2.4,0.5,3.7,0.5c7.1,0,12.6-5.2,12.6-12.3
	C32.6,12.6,27.1,7.4,20,7.4z M27.6,16.8l-3.7,5.9c-0.6,0.9-1.9,1.2-2.7,0.5l-3-2.2c-0.3-0.2-0.6-0.2-0.9,0l-4,3
	c-0.5,0.4-1.2-0.2-0.9-0.8l3.7-5.9c0.6-0.9,1.9-1.2,2.7-0.5l3,2.2c0.3,0.2,0.6,0.2,0.9,0l4-3C27.3,15.6,27.9,16.2,27.6,16.8z"/>
</svg>
