<?xml version="1.0" encoding="utf-8"?>
<!-- Generator: Adobe Illustrator 25.2.0, SVG Export Plug-In . SVG Version: 6.00 Build 0)  -->
<svg version="1.1" id="Layer_1" xmlns="http://www.w3.org/2000/svg" xmlns:xlink="http://www.w3.org/1999/xlink" x="0px" y="0px"
	 viewBox="0 0 40 40" style="enable-background:new 0 0 40 40;" xml:space="preserve">
<style type="text/css">
	.st0{fill:url(#SVGID_1_);}
	.st1{fill:#C1DAEA;}
	.st2{fill:#9CC6D9;}
	.st3{fill:#FFFFFF;}
</style>
<g>
	<linearGradient id="SVGID_1_" gradientUnits="userSpaceOnUse" x1="20.2584" y1="40.2867" x2="19.7532" y2="0.6235">
		<stop  offset="0" style="stop-color:#0093D4"/>
		<stop  offset="1" style="stop-color:#00B0E5"/>
	</linearGradient>
	<path class="st0" d="M34.1,40H5.9C2.6,40,0,37.4,0,34.1V5.9C0,2.6,2.6,0,5.9,0h28.2C37.4,0,40,2.6,40,5.9v28.2
		C40,37.4,37.4,40,34.1,40z"/>
</g>
<g>
	<path class="st1" d="M14.5,21.2l2.4,6.6c0,0,0.3,0.6,0.6,0.6c0.3,0,5-4.9,5-4.9l5.3-10.1l-13.2,6.2L14.5,21.2z"/>
	<path class="st2" d="M17.6,22.9l-0.5,4.8c0,0-0.2,1.5,1.3,0c1.5-1.5,2.9-2.6,2.9-2.6L17.6,22.9z"/>
	<g>
		<path class="st3" d="M14.5,21.5l-4.9-1.6c0,0-0.6-0.2-0.4-0.8c0-0.1,0.1-0.2,0.3-0.4c1.1-0.8,20-7.6,20-7.6s0.5-0.2,0.9-0.1
			c0.1,0.1,0.2,0.1,0.3,0.3c0,0.1,0,0.3,0,0.4c0,0.1,0,0.2,0,0.4c-0.1,1.9-3.6,15.7-3.6,15.7s-0.2,0.8-0.9,0.8c-0.3,0-0.6,0-1-0.4
			c-1.5-1.2-6.5-4.6-7.6-5.4c-0.1,0-0.1-0.1-0.1-0.1c0-0.1,0.1-0.2,0.1-0.2s8.7-7.8,9-8.6c0-0.1,0-0.1-0.1-0.1
			c-0.6,0.2-10.6,6.6-11.8,7.3C14.7,21.5,14.5,21.5,14.5,21.5z"/>
	</g>
</g>
</svg>
