<?xml version="1.0" encoding="utf-8"?>
<!-- Generator: Adobe Illustrator 25.2.0, SVG Export Plug-In . SVG Version: 6.00 Build 0)  -->
<svg version="1.1" id="Layer_1" xmlns="http://www.w3.org/2000/svg" xmlns:xlink="http://www.w3.org/1999/xlink" x="0px" y="0px"
	 viewBox="0 0 40 40" style="enable-background:new 0 0 40 40;" xml:space="preserve">
<style type="text/css">
	.st0{fill:#1DA1F2;}
	.st1{fill:#FFFFFF;}
</style>
<g>
	<g>
		<path class="st0" d="M34.1,40H5.9C2.6,40,0,37.4,0,34.1V5.9C0,2.6,2.6,0,5.9,0h28.2C37.4,0,40,2.6,40,5.9v28.2
			C40,37.4,37.4,40,34.1,40z"/>
	</g>
</g>
<path id="LOGO_17_" class="st1" d="M14.5,32.1c11.2,0,17.4-9.3,17.4-17.4c0-0.3,0-0.5,0-0.8c1.2-0.9,2.2-1.9,3-3.2
	c-1.1,0.5-2.3,0.8-3.5,1c1.3-0.8,2.2-2,2.7-3.4c-1.2,0.7-2.5,1.2-3.9,1.5c-1.1-1.2-2.7-1.9-4.5-1.9c-3.4,0-6.1,2.7-6.1,6.1
	c0,0.5,0.1,0.9,0.2,1.4c-5.1-0.3-9.6-2.7-12.6-6.4c-0.5,0.9-0.8,2-0.8,3.1c0,2.1,1.1,4,2.7,5.1c-1,0-1.9-0.3-2.8-0.8
	c0,0,0,0.1,0,0.1c0,3,2.1,5.4,4.9,6c-0.5,0.1-1.1,0.2-1.6,0.2c-0.4,0-0.8,0-1.1-0.1c0.8,2.4,3,4.2,5.7,4.2c-2.1,1.6-4.7,2.6-7.6,2.6
	c-0.5,0-1,0-1.5-0.1C7.8,31.1,11,32.1,14.5,32.1"/>
</svg>
