<?xml version="1.0" encoding="utf-8"?>
<!-- Generator: Adobe Illustrator 25.2.0, SVG Export Plug-In . SVG Version: 6.00 Build 0)  -->
<svg version="1.1" id="Layer_1" xmlns="http://www.w3.org/2000/svg" xmlns:xlink="http://www.w3.org/1999/xlink" x="0px" y="0px"
	 viewBox="0 0 40 40" style="enable-background:new 0 0 40 40;" xml:space="preserve">
<style type="text/css">
	.st0{fill:url(#SVGID_1_);}
	.st1{fill-rule:evenodd;clip-rule:evenodd;fill:#FFFFFF;}
</style>
<g>
	<linearGradient id="SVGID_1_" gradientUnits="userSpaceOnUse" x1="19.9133" y1="36.3783" x2="20.139" y2="-6.2742">
		<stop  offset="0" style="stop-color:#27CD44"/>
		<stop  offset="1" style="stop-color:#5FFB7C"/>
	</linearGradient>
	<path class="st0" d="M34.1,40H5.9C2.6,40,0,37.4,0,34.1V5.9C0,2.6,2.6,0,5.9,0h28.2C37.4,0,40,2.6,40,5.9v28.2
		C40,37.4,37.4,40,34.1,40z"/>
</g>
<g>
	<g id="WA_Logo_2_">
		<g>
			<path class="st1" d="M29.6,10.6c-2.4-2.4-5.6-3.7-9-3.7C13.7,6.9,8,12.6,8,19.6c0,2.2,0.6,4.4,1.7,6.3l-1.8,6.6l6.7-1.8
				c1.9,1,3.9,1.5,6.1,1.5h0c7,0,12.7-5.7,12.7-12.7C33.3,16.2,32,13,29.6,10.6z M20.6,30.1L20.6,30.1c-1.9,0-3.8-0.5-5.4-1.5
				l-0.4-0.2l-4,1l1.1-3.9l-0.3-0.4c-1.1-1.7-1.6-3.6-1.6-5.6C10.1,13.8,14.8,9,20.7,9c2.8,0,5.5,1.1,7.5,3.1c2,2,3.1,4.6,3.1,7.5
				C31.2,25.4,26.5,30.1,20.6,30.1z M26.4,22.2c-0.3-0.2-1.9-0.9-2.2-1c-0.3-0.1-0.5-0.2-0.7,0.2c-0.2,0.3-0.8,1-1,1.2
				c-0.2,0.2-0.4,0.2-0.7,0.1c-0.3-0.2-1.3-0.5-2.5-1.6c-0.9-0.8-1.6-1.9-1.8-2.2c-0.2-0.3,0-0.5,0.1-0.6c0.1-0.1,0.3-0.4,0.5-0.6
				s0.2-0.3,0.3-0.5s0.1-0.4,0-0.6c-0.1-0.2-0.7-1.7-1-2.4c-0.3-0.6-0.5-0.5-0.7-0.5c-0.2,0-0.4,0-0.6,0c-0.2,0-0.6,0.1-0.8,0.4
				s-1.1,1.1-1.1,2.6s1.1,3.1,1.3,3.3c0.2,0.2,2.2,3.4,5.4,4.8c0.8,0.3,1.3,0.5,1.8,0.7c0.8,0.2,1.5,0.2,2,0.1
				c0.6-0.1,1.9-0.8,2.1-1.5c0.3-0.7,0.3-1.4,0.2-1.5C27,22.5,26.7,22.4,26.4,22.2z"/>
		</g>
	</g>
</g>
</svg>
