<?xml version="1.0" encoding="utf-8"?>
<!-- Generator: Adobe Illustrator 25.2.0, SVG Export Plug-In . SVG Version: 6.00 Build 0)  -->
<svg version="1.1" id="Layer_1" xmlns="http://www.w3.org/2000/svg" xmlns:xlink="http://www.w3.org/1999/xlink" x="0px" y="0px"
	 viewBox="0 0 40 40" style="enable-background:new 0 0 40 40;" xml:space="preserve">
<style type="text/css">
	.st0{fill:#FD0000;}
	.st1{fill:#FFFFFF;}
</style>
<g>
	<path class="st0" d="M34.1,40H5.9C2.6,40,0,37.4,0,34.1V5.9C0,2.6,2.6,0,5.9,0h28.2C37.4,0,40,2.6,40,5.9v28.2
		C40,37.4,37.4,40,34.1,40z"/>
	<path class="st1" d="M29,10.2H11c-2.8,0-5.1,2.3-5.1,5.1v9.4c0,2.8,2.3,5.1,5.1,5.1h18c2.8,0,5.1-2.3,5.1-5.1v-9.4
		C34.1,12.5,31.8,10.2,29,10.2z M20.8,22.8l-4.4,2.7v-5.4v-5.4l4.4,2.7l4.4,2.7L20.8,22.8z"/>
</g>
</svg>
